<svg id="Layer_1" data-name="Layer 1" xmlns="http://www.w3.org/2000/svg" xmlns:xlink="http://www.w3.org/1999/xlink" viewBox="0 0 568.38 568.38"><defs><style>.cls-1{fill:none;}.cls-2{clip-path:url(#clip-path);}.cls-3{fill:url(#linear-gradient);}.cls-4{clip-path:url(#clip-path-2);}.cls-5{fill:url(#linear-gradient-2);}.cls-6{clip-path:url(#clip-path-3);}.cls-7{fill:url(#linear-gradient-3);}.cls-8{clip-path:url(#clip-path-4);}.cls-9{fill:url(#linear-gradient-4);}.cls-10{clip-path:url(#clip-path-5);}.cls-11{fill:url(#linear-gradient-5);}.cls-12{clip-path:url(#clip-path-6);}.cls-13{fill:url(#linear-gradient-6);}.cls-14{clip-path:url(#clip-path-7);}.cls-15{fill:url(#linear-gradient-7);}.cls-16{clip-path:url(#clip-path-8);}.cls-17{fill:url(#linear-gradient-8);}.cls-18{clip-path:url(#clip-path-9);}.cls-19{fill:#fff;}</style><clipPath id="clip-path" transform="translate(-399.42 -42.8)"><polygon class="cls-1" points="618.32 204.17 618.32 327.04 681.46 327.04 681.46 267.31 741.19 267.31 741.19 204.17 618.32 204.17"/></clipPath><linearGradient id="linear-gradient" x1="134.77" y1="921.05" x2="136.47" y2="921.05" gradientTransform="matrix(0, -72, -72, 0, 66595.58, 9987.44)" gradientUnits="userSpaceOnUse"><stop offset="0" stop-color="#a9a9a9"/><stop offset="1" stop-color="#727271"/></linearGradient><clipPath id="clip-path-2" transform="translate(-399.42 -42.8)"><rect class="cls-1" x="476.67" y="327.04" width="61.44" height="157.77"/></clipPath><linearGradient id="linear-gradient-2" x1="133.89" y1="921.81" x2="135.6" y2="921.81" gradientTransform="matrix(0, -92.45, -92.45, 0, 85329.09, 12820.2)" xlink:href="#linear-gradient"/><clipPath id="clip-path-3" transform="translate(-399.42 -42.8)"><polygon class="cls-1" points="538.11 327.04 599.55 449.91 599.55 388.48 599.55 327.04 538.11 327.04"/></clipPath><linearGradient id="linear-gradient-3" x1="134.06" y1="921.68" x2="135.77" y2="921.68" gradientTransform="matrix(0, -72, -72, 0, 66530.58, 10059.44)" xlink:href="#linear-gradient"/><clipPath id="clip-path-4" transform="translate(-399.42 -42.8)"><polygon class="cls-1" points="681.46 327.04 618.32 327.04 618.32 475.42 681.46 475.42 681.46 449.91 742.9 327.04 681.46 327.04"/></clipPath><linearGradient id="linear-gradient-4" x1="133.93" y1="921.03" x2="135.63" y2="921.03" gradientTransform="matrix(0, -86.95, -86.95, 0, 80360.88, 12077.08)" xlink:href="#linear-gradient"/><clipPath id="clip-path-5" transform="translate(-399.42 -42.8)"><polygon class="cls-1" points="806.04 204.17 742.9 327.04 806.04 327.04 867.48 204.17 806.04 204.17"/></clipPath><linearGradient id="linear-gradient-5" x1="134.77" y1="920.32" x2="136.47" y2="920.32" gradientTransform="matrix(0, -72, -72, 0, 66669.08, 9987.44)" xlink:href="#linear-gradient"/><clipPath id="clip-path-6" transform="translate(-399.42 -42.8)"><polygon class="cls-1" points="806.04 327.04 742.9 327.04 806.04 449.91 867.48 449.91 806.04 327.04"/></clipPath><linearGradient id="linear-gradient-6" x1="134.06" y1="920.32" x2="135.77" y2="920.32" gradientTransform="matrix(0, -72, -72, 0, 66669.08, 10059.44)" xlink:href="#linear-gradient"/><clipPath id="clip-path-7" transform="translate(-399.42 -42.8)"><path class="cls-1" d="M476.67,265.6V327H599.55L538.11,204.17a61.43,61.43,0,0,0-61.44,61.43"/></clipPath><linearGradient id="linear-gradient-7" x1="134.77" y1="921.86" x2="136.47" y2="921.86" gradientTransform="matrix(0, -72, -72, 0, 66512.58, 9987.44)" xlink:href="#linear-gradient"/><clipPath id="clip-path-8" transform="translate(-399.42 -42.8)"><path class="cls-1" d="M599.55,224.65V186.83H895l-68.38,141,69.62,139.35H794.52L742.9,368v99.16H459.42v-198a82.38,82.38,0,0,1,82.29-82.29h9.11l48.73,99.25Zm-57.84-56.6A101.18,101.18,0,0,0,440.64,269.12V485.93H926.58L847.52,327.68l77.42-159.63Z"/></clipPath><linearGradient id="linear-gradient-8" x1="133.81" y1="921.04" x2="135.52" y2="921.04" gradientTransform="matrix(0, -332.38, -332.38, 0, 306415.55, 45044.19)" gradientUnits="userSpaceOnUse"><stop offset="0" stop-color="#f9df7b"/><stop offset="0.1" stop-color="#e1bc55"/><stop offset="0.2" stop-color="#cea137"/><stop offset="0.3" stop-color="#c08e21"/><stop offset="0.4" stop-color="#b88214"/><stop offset="0.49" stop-color="#b57e10"/><stop offset="0.49" stop-color="#b88214"/><stop offset="0.49" stop-color="#c08d21"/><stop offset="0.5" stop-color="#cda036"/><stop offset="0.5" stop-color="#dfbb53"/><stop offset="0.5" stop-color="#f7dc78"/><stop offset="0.5" stop-color="#f9df7b"/><stop offset="1" stop-color="#c49328"/></linearGradient><clipPath id="clip-path-9" transform="translate(-399.42 -42.8)"><rect class="cls-1" x="-257.15" y="-586.48" width="1880.3" height="1832.96"/></clipPath></defs><g class="cls-2"><rect class="cls-3" x="218.9" y="161.36" width="122.87" height="122.87"/></g><g class="cls-4"><rect class="cls-5" x="77.25" y="284.24" width="61.44" height="157.77"/></g><g class="cls-6"><rect class="cls-7" x="138.69" y="284.24" width="61.44" height="122.87"/></g><g class="cls-8"><rect class="cls-9" x="218.9" y="284.24" width="124.58" height="148.38"/></g><g class="cls-10"><rect class="cls-11" x="343.48" y="161.36" width="124.58" height="122.87"/></g><g class="cls-12"><rect class="cls-13" x="343.48" y="284.24" width="124.58" height="122.87"/></g><g class="cls-14"><rect class="cls-15" x="77.25" y="161.36" width="122.87" height="122.87"/></g><g class="cls-16"><rect class="cls-17" width="568.38" height="568.38"/></g><g class="cls-18"><polygon class="cls-19" points="45.55 462.29 92.04 504.07 92.04 462.29 112.08 462.29 112.08 541.88 107.71 541.88 61.34 500.2 61.34 541.88 41.35 541.88 41.35 462.29 45.55 462.29"/><polygon class="cls-19" points="132.87 462.29 187.63 462.29 187.63 481.65 153.2 481.65 153.2 492.48 179.66 492.48 179.66 511.84 153.2 511.84 153.2 541.98 132.87 541.98 132.87 462.29"/><polygon class="cls-19" points="208.91 462.49 228.27 462.49 228.27 492.92 249.34 462.49 271.75 462.49 246.47 502.72 275.85 541.89 252.24 541.89 228.27 512.37 228.27 541.89 208.91 541.89 208.91 462.49"/><polygon class="cls-19" points="294.26 462.29 349.02 462.29 349.02 481.65 314.59 481.65 314.59 492.48 341.05 492.48 341.05 511.84 314.59 511.84 314.59 522.68 349.02 522.68 349.02 541.98 294.26 541.98 294.26 462.29"/><polygon class="cls-19" points="369.67 462.49 391.63 462.49 406.79 488.04 421.96 462.49 443.97 462.49 417.69 508.04 417.69 541.89 395.9 541.89 395.9 508.04 369.67 462.49"/><polygon class="cls-19" points="463.87 462.49 527.64 462.49 495.39 523.38 526.62 523.38 526.62 541.89 462.86 541.89 495.1 481.75 463.87 481.75 463.87 462.49"/></g></svg>