<svg width="32" height="32" viewBox="0 0 36 36" fill="none" xmlns="http://www.w3.org/2000/svg"><g clip-path="url(#clip0_256_203)"><path d="M17.5204 0H18.5762C18.9602 0 19.3321 -2.92808e-06 19.7041 0.0719971C20.0761 0.143997 20.7365 0.191977 21.2405 0.275977C22.4713 0.501394 23.6771 0.847106 24.8405 1.30803C27.1603 2.25503 29.2577 3.6744 30.9993 5.47588C32.7408 7.27736 34.0881 9.42149 34.9561 11.772C35.3986 12.9878 35.7126 14.2467 35.8924 15.528C35.9721 16.0645 36.0161 16.6057 36.0243 17.148C36.0175 17.1796 36.0175 17.2124 36.0243 17.244V18.72C36.0186 18.7558 36.0186 18.7922 36.0243 18.828V19.128C36.0243 19.672 35.9644 20.212 35.8444 20.748C35.7153 21.6101 35.5184 22.4607 35.2561 23.292C34.5303 25.7013 33.3035 27.93 31.6561 29.832C29.8735 31.8847 27.6449 33.502 25.1405 34.56C24.0046 35.0427 22.822 35.4086 21.612 35.652C21.0727 35.7613 20.528 35.8414 19.9801 35.892L18.8762 35.976H17.3165C16.7525 35.976 16.2 35.892 15.636 35.82C14.9977 35.7359 14.3652 35.6157 13.7405 35.46C11.8415 34.9867 10.0329 34.2043 8.38794 33.144C6.39939 31.8687 4.68255 30.213 3.33598 28.272C2.10637 26.5161 1.20423 24.5526 0.67231 22.476C0.512651 21.8677 0.388371 21.2507 0.30024 20.628C0.30024 20.22 0.204099 19.812 0.156099 19.428C0.108099 19.044 0.156099 18.876 0.156099 18.6C0.156099 18.6 0.156099 18.528 0.156099 18.504V17.532C0.156099 17.436 0.156099 17.328 0.156099 17.232C0.156099 16.692 0.22824 16.152 0.30024 15.624C0.397383 14.8924 0.537744 14.1671 0.720357 13.452C1.47452 10.5711 2.93452 7.9233 4.9684 5.74797C6.57166 4.01424 8.50532 2.61887 10.6561 1.64399C11.7001 1.16136 12.7894 0.783509 13.9081 0.515991C14.5201 0.371991 15.1084 0.252018 15.7444 0.168018C16.1164 0.168018 16.5003 0.0959853 16.8723 0.0599853C17.2443 0.0239854 17.3404 0.0599853 17.5684 0.0599853L17.5204 0ZM21.7924 25.056V25.128C22.0444 25.452 22.2843 25.788 22.5243 26.112C22.5457 26.126 22.5708 26.1334 22.5963 26.1334C22.6219 26.1334 22.647 26.126 22.6684 26.112C23.1408 26.0935 23.6105 26.0332 24.0723 25.932C25.0367 25.7453 25.9671 25.4136 26.8321 24.948C27.7141 24.4785 28.5065 23.857 29.1723 23.112C29.1812 23.0911 29.1858 23.0687 29.1858 23.046C29.1858 23.0233 29.1812 23.0009 29.1723 22.98C29.1723 22.62 29.1122 22.248 29.0762 21.888C29.0762 21.216 28.9323 20.544 28.8243 19.884C28.6928 18.9987 28.5123 18.1214 28.284 17.256C27.9647 15.9772 27.5353 14.7286 27.0002 13.524C26.7636 12.9626 26.4825 12.4209 26.16 11.904C26.1177 11.8362 26.0652 11.7755 26.0041 11.724C25.1424 11.1122 24.2018 10.6197 23.2081 10.26C22.5881 10.0285 21.9439 9.86749 21.2879 9.78003H20.9879L20.736 10.284C21.63 10.4871 22.4967 10.7974 23.3165 11.208C24.1221 11.6364 24.8648 12.1734 25.5243 12.804H25.4405L24.4684 12.324C23.6298 11.9198 22.7588 11.5866 21.8645 11.328C20.7715 11.0358 19.6475 10.8747 18.5165 10.848C17.6672 10.8199 16.817 10.852 15.9723 10.944C15.4714 11.0018 14.9742 11.09 14.484 11.208C13.555 11.4236 12.6503 11.7332 11.784 12.132L10.3924 12.804H10.3204L10.7165 12.468C11.3622 11.9154 12.076 11.4476 12.8405 11.076C13.5398 10.7348 14.2764 10.4771 15.036 10.308H15.1081L14.8684 9.81599H14.76C14.4293 9.84946 14.101 9.90155 13.7762 9.972C12.9436 10.1598 12.1375 10.4499 11.3762 10.836C10.8185 11.1042 10.2883 11.4257 9.79243 11.796C9.7426 11.8338 9.69777 11.8782 9.66001 11.928L9.37231 12.432C8.95884 13.2068 8.59814 14.0086 8.29243 14.832C7.87689 15.9705 7.54393 17.1376 7.29633 18.324C7.16433 18.948 7.04401 19.524 6.96001 20.196C6.87601 20.868 6.82812 21.12 6.78012 21.588C6.73212 22.056 6.69601 22.548 6.66001 23.016C6.64909 23.0405 6.6436 23.0671 6.6436 23.094C6.6436 23.1209 6.64909 23.1474 6.66001 23.172C7.34038 23.9326 8.15366 24.5629 9.06001 25.032C9.90747 25.4716 10.8125 25.7908 11.7483 25.98C12.2181 26.082 12.6958 26.1422 13.1762 26.16C13.1945 26.1705 13.2149 26.1761 13.236 26.1761C13.257 26.1761 13.2781 26.1705 13.2963 26.16C13.5363 25.824 13.8002 25.488 14.0522 25.152C13.2033 24.8583 12.3965 24.4549 11.6522 23.952C10.919 23.461 10.2535 22.876 9.67231 22.212H9.74438C10.6996 22.9176 11.7552 23.4758 12.8762 23.868C13.7546 24.1797 14.6635 24.3969 15.5879 24.516C16.1807 24.5962 16.7781 24.6403 17.3762 24.648C18.069 24.6719 18.7627 24.6479 19.4522 24.576C19.9842 24.5254 20.5128 24.4453 21.036 24.336C21.9702 24.1418 22.8802 23.844 23.7483 23.448C24.4771 23.1153 25.1722 22.7134 25.8243 22.248C24.7308 23.5004 23.3463 24.4647 21.7924 25.056Z" fill="white"></path><path d="M19.5357 19.068C19.5266 18.7708 19.5787 18.4748 19.688 18.1983C19.7974 17.9218 19.9621 17.6706 20.172 17.46C20.3288 17.3025 20.5158 17.1786 20.7222 17.0961C20.9285 17.0136 21.1498 16.9741 21.372 16.98C21.7883 16.991 22.1839 17.1631 22.4759 17.46C22.7895 17.7635 22.9995 18.1582 23.0759 18.588C23.1819 19.1175 23.0924 19.6674 22.824 20.1359C22.6171 20.5282 22.2699 20.8281 21.8519 20.976C21.58 21.0752 21.286 21.0975 21.0023 21.0403C20.7185 20.9832 20.4563 20.8488 20.2441 20.652C19.8839 20.3452 19.6454 19.9195 19.572 19.452C19.56 19.296 19.5477 19.152 19.5357 19.068Z" fill="white"></path><path d="M16.4758 18.972C16.4903 19.5371 16.2883 20.0865 15.9116 20.508C15.6689 20.7795 15.3446 20.9647 14.9876 21.0359C14.7546 21.0844 14.514 21.0793 14.2833 21.0211C14.0525 20.9629 13.8378 20.8531 13.6557 20.7C13.2821 20.399 13.0307 19.9725 12.9479 19.5C12.8762 19.1969 12.8689 18.8822 12.9268 18.5763C12.9847 18.2703 13.1062 17.9799 13.2836 17.724C13.5298 17.357 13.9085 17.099 14.3401 17.004C14.5905 16.9465 14.8509 16.9503 15.0995 17.015C15.3481 17.0798 15.5775 17.2036 15.768 17.376C16.1401 17.7051 16.3824 18.1561 16.4518 18.648C16.4638 18.78 16.4638 18.9 16.4758 18.972Z" fill="white"></path></g><defs><clipPath id="clip0_256_203"><rect width="36" height="36" fill="white"></rect></clipPath></defs></svg>