<svg width="36" height="37" viewBox="0 0 36 37" fill="none" xmlns="http://www.w3.org/2000/svg">
<path d="M13.5 3.51067C16.2846 1.90298 19.7154 1.90298 22.5 3.51067L29.0885 7.31452C31.8731 8.92222 33.5885 11.8934 33.5885 15.1087V22.7164C33.5885 25.9318 31.8731 28.903 29.0885 30.5107L22.5 34.3145C19.7154 35.9222 16.2846 35.9222 13.5 34.3145L6.91154 30.5107C4.12693 28.903 2.41154 25.9318 2.41154 22.7164V15.1087C2.41154 11.8934 4.12693 8.92222 6.91154 7.31452L13.5 3.51067Z" fill="#faff00"/>
<path fill-rule="evenodd" clip-rule="evenodd" d="M19 17.9126V10.9126H17V17.9126H10V19.9126H17V26.9126H19V19.9126H26V17.9126H19Z" fill="black"/>
</svg>
