<svg width="32" height="32" viewBox="0 0 38 36" fill="none" xmlns="http://www.w3.org/2000/svg"><g clip-path="url(#clip0_256_209)"><path d="M33.5056 7.46699C30.8079 3.86136 26.8656 1.3515 22.4206 0.409813C17.9756 -0.531878 13.3346 0.159549 9.37094 2.35396C2.47697 6.15035 -1.14811 13.7722 0.322601 21.3735C1.87015 29.3617 8.92211 35.4674 17.1662 35.9598C21.5855 36.2244 25.6572 35.1936 29.2601 32.6431C34.3257 29.0561 36.8571 24.1242 37.0316 18.6418C36.9863 14.1181 35.8474 10.5877 33.5056 7.46699ZM29.6816 11.4813C29.1006 12.0883 28.5182 12.6954 27.9057 13.2698C27.7261 13.4389 27.6242 13.5769 27.622 13.8273C27.6055 15.7744 27.3226 17.6803 26.5987 19.5021C25.3334 22.6859 23.0619 24.9222 19.8412 26.1398C15.6337 27.7303 11.5016 27.4727 7.51172 25.3616C7.38533 25.2951 7.26612 25.2158 7.14619 25.1387C7.08814 25.0845 7.03481 25.0256 6.98677 24.9626C9.33862 25.1996 11.4219 24.6697 13.3716 23.5844C13.5289 23.4966 13.6509 23.3495 13.8154 23.2073C11.2302 22.4545 9.69912 21.2518 9.60289 19.8948H11.2596C11.2704 19.8658 11.2811 19.8361 11.2912 19.8071C10.2779 19.4965 9.44419 18.9397 8.82229 18.102C8.2083 17.275 7.87078 16.3595 7.88874 15.3053L9.73503 15.8458L9.79751 15.763C8.40938 14.6494 7.78676 13.2161 7.91818 11.4763C7.95494 10.8202 8.2007 10.1921 8.6205 9.68144C11.1655 12.5822 14.4459 13.9688 18.2347 14.4818C18.2225 14.3021 18.2168 14.1542 18.2003 14.0078C17.9331 11.562 19.7765 9.26757 22.2691 8.93363C23.7887 8.72917 25.1036 9.1388 26.2403 10.1491C26.298 10.1912 26.3645 10.2202 26.4349 10.2339C26.5053 10.2476 26.5779 10.2457 26.6475 10.2283C27.426 9.96373 28.1951 9.67437 28.9656 9.38996C29.082 9.3468 29.1933 9.2902 29.3922 9.20176C29.097 10.2446 28.4529 10.9379 27.7879 11.678L29.8575 11.0816C29.7936 11.2294 29.7721 11.3872 29.6816 11.4813Z" fill="white"></path></g><defs><clipPath id="clip0_256_209"><rect width="37.0286" height="36" fill="white"></rect></clipPath></defs></svg>